<?xml version="1.0" encoding="UTF-8" standalone="no"?>
<!-- Created with Inkscape (http://www.inkscape.org/) -->

<svg
   width="171.55962mm"
   height="202.04478mm"
   viewBox="0 0 171.55962 202.04478"
   version="1.1"
   id="svg1"
   inkscape:version="1.3.1 (9b9bdc1480, 2023-11-25, custom)"
   sodipodi:docname="pruebas_dibujo.svg"
   xmlns:inkscape="http://www.inkscape.org/namespaces/inkscape"
   xmlns:sodipodi="http://sodipodi.sourceforge.net/DTD/sodipodi-0.dtd"
   xmlns="http://www.w3.org/2000/svg"
   xmlns:svg="http://www.w3.org/2000/svg">
  <sodipodi:namedview
     id="namedview1"
     pagecolor="#ffffff"
     bordercolor="#999999"
     borderopacity="1"
     inkscape:showpageshadow="2"
     inkscape:pageopacity="0"
     inkscape:pagecheckerboard="0"
     inkscape:deskcolor="#d1d1d1"
     inkscape:document-units="mm"
     inkscape:zoom="0.72693603"
     inkscape:cx="253.805"
     inkscape:cy="530.99583"
     inkscape:window-width="1850"
     inkscape:window-height="1016"
     inkscape:window-x="70"
     inkscape:window-y="27"
     inkscape:window-maximized="1"
     inkscape:current-layer="layer1">
    <inkscape:page
       x="0"
       y="0"
       width="171.55962"
       height="202.04477"
       id="page1"
       margin="0 0 0 0"
       bleed="0" />
  </sodipodi:namedview>
  <defs
     id="defs1" />
  <g
     inkscape:label="Layer 1"
     inkscape:groupmode="layer"
     id="layer1"
     transform="translate(-37.721317,-7.8709194)">
    <path
       style="fill:#fff402;fill-opacity:1;stroke:#000000;stroke-width:0.157088;stroke-opacity:1"
       d="m 140.78198,131.18368 22.0662,-9.07815 10.25166,-23.535447 7.24762,23.558887 22.80336,8.07953 -22.11918,8.15337 -7.92289,24.62114 -9.37905,-24.61701 z"
       id="path1"
       sodipodi:nodetypes="ccccccccc" />
    <path
       style="fill:#5eff02;fill-opacity:1;stroke:#000000;stroke-width:0.152535;stroke-opacity:1"
       d="m 38.027656,119.60673 -0.22921,20.34014 49.72981,0.18426 -3.10252,14.73665 36.083414,-26.43192 -35.969964,-25.0896 2.76908,15.67797 z"
       id="path2"
       sodipodi:nodetypes="cccccccc" />
    <path
       style="fill:#fff802;fill-opacity:1;stroke:#000000;stroke-width:0.264583;stroke-opacity:1"
       id="path3"
       sodipodi:type="arc"
       sodipodi:cx="79.174843"
       sodipodi:cy="47.596256"
       sodipodi:rx="29.827427"
       sodipodi:ry="28.794561"
       sodipodi:start="0.49446232"
       sodipodi:end="5.6993294"
       sodipodi:arc-type="slice"
       d="M 105.42966,61.260958 A 29.827427,28.794561 0 0 1 72.523563,75.665778 29.827427,28.794561 0 0 1 49.377206,48.882852 29.827427,28.794561 0 0 1 69.95434,20.212043 29.827427,28.794561 0 0 1 104.06116,31.723393 L 79.174843,47.596256 Z" />
    <ellipse
       style="fill:#000000;fill-opacity:1;stroke:#000000;stroke-width:0.264583;stroke-opacity:1"
       id="path4"
       cx="78.226227"
       cy="32.257721"
       rx="6.4936228"
       ry="6.8608923" />
    <path
       style="fill:#e902f7;fill-opacity:1;stroke:#000000;stroke-width:0.264583;stroke-opacity:1"
       id="path5"
       sodipodi:type="arc"
       sodipodi:cx="182.93756"
       sodipodi:cy="54.353172"
       sodipodi:rx="26.20838"
       sodipodi:ry="26.706209"
       sodipodi:start="5.1609745"
       sodipodi:end="4.301842"
       sodipodi:arc-type="slice"
       d="m 194.30391,30.289237 a 26.20838,26.706209 0 0 1 14.12897,30.25118 26.20838,26.706209 0 0 1 -25.99375,20.514134 26.20838,26.706209 0 0 1 -25.20935,-21.506598 26.20838,26.706209 0 0 1 15.24773,-29.681775 l 10.46005,24.486994 z" />
    <path
       style="fill:#e902f7;fill-opacity:1;stroke:#000000;stroke-width:0.264583;stroke-opacity:1"
       id="path5-5"
       sodipodi:type="arc"
       sodipodi:cx="182.69286"
       sodipodi:cy="34.709354"
       sodipodi:rx="26.20838"
       sodipodi:ry="26.706209"
       sodipodi:start="4.3002529"
       sodipodi:end="5.1035258"
       sodipodi:arc-type="slice"
       d="m 172.19463,10.239329 a 26.20838,26.706209 0 0 1 20.4899,-0.219231 l -9.99167,24.689256 z" />
    <path
       style="fill:#30ff02;fill-opacity:1;stroke:#000000;stroke-width:0.157088;stroke-opacity:1"
       d="m 96.153745,177.67731 c 0.522842,-33.56144 22.148775,-8.719 22.148775,-8.719 0,0 -24.562438,-23.16815 10.25166,-23.53545 34.81409,-0.3673 7.24762,23.55889 7.24762,23.55889 0,0 22.54469,-25.2058 22.80336,8.07953 0.25866,33.28532 -22.11918,8.15337 -22.11918,8.15337 0,0 23.93329,24.40724 -7.92289,24.62113 -31.856183,0.21389 -9.37905,-24.617 -9.37905,-24.617 0,0 -23.553137,26.01996 -23.030295,-7.54147 z"
       id="path1-2"
       sodipodi:nodetypes="zczczczcz" />
  </g>
</svg>
